# xmcd CD database file
#
# Track frame offsets:
#	150
#	74130
#	118957
#	184920
#	232901
#
# Disc length: 3838 seconds
#
# Revision: 0
# Processed by: cddbd v1.5.2PL0 Copyright (c) Steve Scherf et al.
# Submitted via: CDex 1.51
#
DISCID=490efc05
DTITLE=James Carter Organ Trio - 2011-10-30 Jazz Cologne
DYEAR=2011
DGENRE=Jazz
TTITLE0=James Carter Organ Trio - Chant in the Night
TTITLE1=James Carter Organ Trio - Many Blessings
TTITLE2=James Carter Organ Trio - The hard Blues
TTITLE3=James Carter Organ Trio - Sussa Nita
TTITLE4=James Carter Organ Trio - Come Sunday
EXTD=YEAR: 2011
EXTT0=
EXTT1=
EXTT2=
EXTT3=
EXTT4=
PLAYORDER=
